<mxfile host="app.diagrams.net" modified="2024-08-26T15:37:59.163Z" agent="Mozilla/5.0 (Windows NT 10.0; Win64; x64) AppleWebKit/537.36 (KHTML, like Gecko) Chrome/128.0.0.0 Safari/537.36 Edg/128.0.0.0" etag="yw6eUASdYMXdvQvbz3WT" version="24.6.5" type="device">
  <diagram name="Page-1" id="pP9LMYDNcALWfonVb2kW">
    <mxGraphModel dx="1344" dy="922" grid="1" gridSize="10" guides="1" tooltips="1" connect="1" arrows="1" fold="1" page="1" pageScale="1" pageWidth="850" pageHeight="1100" math="0" shadow="0">
      <root>
        <mxCell id="0" />
        <mxCell id="1" parent="0" />
        <mxCell id="32LVTKCDqMcI-Yv9jakk-1" value="make a random number&amp;nbsp;" style="ellipse;whiteSpace=wrap;html=1;" vertex="1" parent="1">
          <mxGeometry x="315" y="140" width="120" height="80" as="geometry" />
        </mxCell>
        <mxCell id="32LVTKCDqMcI-Yv9jakk-2" value="" style="endArrow=classic;html=1;rounded=0;" edge="1" parent="1" source="32LVTKCDqMcI-Yv9jakk-1" target="32LVTKCDqMcI-Yv9jakk-3">
          <mxGeometry width="50" height="50" relative="1" as="geometry">
            <mxPoint x="345" y="310" as="sourcePoint" />
            <mxPoint x="375" y="280" as="targetPoint" />
          </mxGeometry>
        </mxCell>
        <mxCell id="32LVTKCDqMcI-Yv9jakk-5" value="" style="edgeStyle=orthogonalEdgeStyle;rounded=0;orthogonalLoop=1;jettySize=auto;html=1;" edge="1" parent="1" source="32LVTKCDqMcI-Yv9jakk-3">
          <mxGeometry relative="1" as="geometry">
            <mxPoint x="525" y="360" as="targetPoint" />
          </mxGeometry>
        </mxCell>
        <mxCell id="32LVTKCDqMcI-Yv9jakk-11" value="" style="edgeStyle=orthogonalEdgeStyle;rounded=0;orthogonalLoop=1;jettySize=auto;html=1;" edge="1" parent="1" source="32LVTKCDqMcI-Yv9jakk-3" target="32LVTKCDqMcI-Yv9jakk-12">
          <mxGeometry relative="1" as="geometry">
            <mxPoint x="225" y="360" as="targetPoint" />
          </mxGeometry>
        </mxCell>
        <mxCell id="32LVTKCDqMcI-Yv9jakk-3" value="Ask user to choose the dificulty level" style="rounded=0;whiteSpace=wrap;html=1;" vertex="1" parent="1">
          <mxGeometry x="315" y="250" width="120" height="60" as="geometry" />
        </mxCell>
        <mxCell id="32LVTKCDqMcI-Yv9jakk-6" value="Attempt = 10" style="rounded=0;whiteSpace=wrap;html=1;" vertex="1" parent="1">
          <mxGeometry x="465" y="360" width="120" height="60" as="geometry" />
        </mxCell>
        <mxCell id="32LVTKCDqMcI-Yv9jakk-7" value="Easy level" style="text;html=1;align=center;verticalAlign=middle;whiteSpace=wrap;rounded=0;" vertex="1" parent="1">
          <mxGeometry x="455" y="250" width="60" height="30" as="geometry" />
        </mxCell>
        <mxCell id="32LVTKCDqMcI-Yv9jakk-12" value="Attempt = 5" style="rounded=0;whiteSpace=wrap;html=1;" vertex="1" parent="1">
          <mxGeometry x="165" y="360" width="120" height="60" as="geometry" />
        </mxCell>
        <mxCell id="32LVTKCDqMcI-Yv9jakk-13" value="Hard level" style="text;html=1;align=center;verticalAlign=middle;whiteSpace=wrap;rounded=0;" vertex="1" parent="1">
          <mxGeometry x="225" y="250" width="60" height="30" as="geometry" />
        </mxCell>
        <mxCell id="32LVTKCDqMcI-Yv9jakk-38" value="" style="edgeStyle=orthogonalEdgeStyle;rounded=0;orthogonalLoop=1;jettySize=auto;html=1;" edge="1" parent="1" source="32LVTKCDqMcI-Yv9jakk-14" target="32LVTKCDqMcI-Yv9jakk-37">
          <mxGeometry relative="1" as="geometry" />
        </mxCell>
        <mxCell id="32LVTKCDqMcI-Yv9jakk-14" value="Ask user to guess" style="whiteSpace=wrap;html=1;rounded=0;" vertex="1" parent="1">
          <mxGeometry x="310" y="480" width="130" height="60" as="geometry" />
        </mxCell>
        <mxCell id="32LVTKCDqMcI-Yv9jakk-23" value="Too High" style="whiteSpace=wrap;html=1;rounded=0;" vertex="1" parent="1">
          <mxGeometry x="630" y="830" width="120" height="60" as="geometry" />
        </mxCell>
        <mxCell id="32LVTKCDqMcI-Yv9jakk-39" value="" style="edgeStyle=orthogonalEdgeStyle;rounded=0;orthogonalLoop=1;jettySize=auto;html=1;entryX=0.5;entryY=0;entryDx=0;entryDy=0;" edge="1" parent="1" source="32LVTKCDqMcI-Yv9jakk-37" target="32LVTKCDqMcI-Yv9jakk-61">
          <mxGeometry relative="1" as="geometry">
            <mxPoint x="185" y="750" as="targetPoint" />
          </mxGeometry>
        </mxCell>
        <mxCell id="32LVTKCDqMcI-Yv9jakk-37" value="Is guess correct?" style="rhombus;whiteSpace=wrap;html=1;" vertex="1" parent="1">
          <mxGeometry x="315" y="600" width="120" height="110" as="geometry" />
        </mxCell>
        <mxCell id="32LVTKCDqMcI-Yv9jakk-40" value="Yes" style="text;html=1;align=center;verticalAlign=middle;whiteSpace=wrap;rounded=0;" vertex="1" parent="1">
          <mxGeometry x="255" y="620" width="60" height="30" as="geometry" />
        </mxCell>
        <mxCell id="32LVTKCDqMcI-Yv9jakk-41" value="No" style="text;html=1;align=center;verticalAlign=middle;whiteSpace=wrap;rounded=0;" vertex="1" parent="1">
          <mxGeometry x="440" y="620" width="60" height="30" as="geometry" />
        </mxCell>
        <mxCell id="32LVTKCDqMcI-Yv9jakk-43" value="" style="edgeStyle=orthogonalEdgeStyle;rounded=0;orthogonalLoop=1;jettySize=auto;html=1;exitX=1;exitY=0.5;exitDx=0;exitDy=0;" edge="1" parent="1" source="32LVTKCDqMcI-Yv9jakk-37" target="32LVTKCDqMcI-Yv9jakk-42">
          <mxGeometry relative="1" as="geometry">
            <mxPoint x="400" y="610" as="sourcePoint" />
            <mxPoint x="695" y="670" as="targetPoint" />
            <Array as="points" />
          </mxGeometry>
        </mxCell>
        <mxCell id="32LVTKCDqMcI-Yv9jakk-50" value="" style="edgeStyle=orthogonalEdgeStyle;rounded=0;orthogonalLoop=1;jettySize=auto;html=1;entryX=1;entryY=0.5;entryDx=0;entryDy=0;" edge="1" parent="1" source="32LVTKCDqMcI-Yv9jakk-42" target="32LVTKCDqMcI-Yv9jakk-14">
          <mxGeometry relative="1" as="geometry">
            <mxPoint x="429.9999999999998" y="500" as="targetPoint" />
            <Array as="points">
              <mxPoint x="585" y="500" />
              <mxPoint x="440" y="500" />
            </Array>
          </mxGeometry>
        </mxCell>
        <mxCell id="32LVTKCDqMcI-Yv9jakk-55" style="edgeStyle=orthogonalEdgeStyle;rounded=0;orthogonalLoop=1;jettySize=auto;html=1;entryX=1;entryY=0.5;entryDx=0;entryDy=0;" edge="1" parent="1" source="32LVTKCDqMcI-Yv9jakk-59" target="32LVTKCDqMcI-Yv9jakk-46">
          <mxGeometry relative="1" as="geometry">
            <Array as="points" />
          </mxGeometry>
        </mxCell>
        <mxCell id="32LVTKCDqMcI-Yv9jakk-65" style="edgeStyle=orthogonalEdgeStyle;rounded=0;orthogonalLoop=1;jettySize=auto;html=1;entryX=1;entryY=0.5;entryDx=0;entryDy=0;" edge="1" parent="1" source="32LVTKCDqMcI-Yv9jakk-42" target="32LVTKCDqMcI-Yv9jakk-59">
          <mxGeometry relative="1" as="geometry">
            <Array as="points">
              <mxPoint x="800" y="655" />
              <mxPoint x="800" y="980" />
            </Array>
          </mxGeometry>
        </mxCell>
        <mxCell id="32LVTKCDqMcI-Yv9jakk-66" style="edgeStyle=orthogonalEdgeStyle;rounded=0;orthogonalLoop=1;jettySize=auto;html=1;entryX=0.75;entryY=0;entryDx=0;entryDy=0;" edge="1" parent="1" source="32LVTKCDqMcI-Yv9jakk-42" target="32LVTKCDqMcI-Yv9jakk-44">
          <mxGeometry relative="1" as="geometry" />
        </mxCell>
        <mxCell id="32LVTKCDqMcI-Yv9jakk-42" value="&lt;div&gt;&lt;span style=&quot;background-color: initial;&quot;&gt;Is attempt == 0?&lt;/span&gt;&lt;br&gt;&lt;/div&gt;" style="rhombus;whiteSpace=wrap;html=1;" vertex="1" parent="1">
          <mxGeometry x="522.5" y="600" width="125" height="110" as="geometry" />
        </mxCell>
        <mxCell id="32LVTKCDqMcI-Yv9jakk-44" value="Too low" style="whiteSpace=wrap;html=1;" vertex="1" parent="1">
          <mxGeometry x="425" y="830" width="120" height="60" as="geometry" />
        </mxCell>
        <mxCell id="32LVTKCDqMcI-Yv9jakk-46" value="Game over" style="ellipse;whiteSpace=wrap;html=1;rounded=0;" vertex="1" parent="1">
          <mxGeometry x="145" y="940" width="80" height="80" as="geometry" />
        </mxCell>
        <mxCell id="32LVTKCDqMcI-Yv9jakk-48" value="Attempt - 1" style="text;html=1;align=center;verticalAlign=middle;whiteSpace=wrap;rounded=0;" vertex="1" parent="1">
          <mxGeometry x="437.5" y="660" width="75" height="30" as="geometry" />
        </mxCell>
        <mxCell id="32LVTKCDqMcI-Yv9jakk-54" value="No" style="text;html=1;align=center;verticalAlign=middle;whiteSpace=wrap;rounded=0;" vertex="1" parent="1">
          <mxGeometry x="570" y="570" width="60" height="30" as="geometry" />
        </mxCell>
        <mxCell id="32LVTKCDqMcI-Yv9jakk-56" value="Yes" style="text;html=1;align=center;verticalAlign=middle;whiteSpace=wrap;rounded=0;" vertex="1" parent="1">
          <mxGeometry x="630" y="620" width="60" height="30" as="geometry" />
        </mxCell>
        <mxCell id="32LVTKCDqMcI-Yv9jakk-57" value="If guess &amp;gt; number" style="text;html=1;align=center;verticalAlign=middle;whiteSpace=wrap;rounded=0;" vertex="1" parent="1">
          <mxGeometry x="620" y="740" width="110" height="30" as="geometry" />
        </mxCell>
        <mxCell id="32LVTKCDqMcI-Yv9jakk-58" value="If guess &amp;lt; number" style="text;html=1;align=center;verticalAlign=middle;whiteSpace=wrap;rounded=0;" vertex="1" parent="1">
          <mxGeometry x="445" y="740" width="110" height="30" as="geometry" />
        </mxCell>
        <mxCell id="32LVTKCDqMcI-Yv9jakk-59" value="You loose" style="rounded=0;whiteSpace=wrap;html=1;" vertex="1" parent="1">
          <mxGeometry x="315" y="950" width="120" height="60" as="geometry" />
        </mxCell>
        <mxCell id="32LVTKCDqMcI-Yv9jakk-62" value="" style="edgeStyle=orthogonalEdgeStyle;rounded=0;orthogonalLoop=1;jettySize=auto;html=1;" edge="1" parent="1" source="32LVTKCDqMcI-Yv9jakk-61" target="32LVTKCDqMcI-Yv9jakk-46">
          <mxGeometry relative="1" as="geometry" />
        </mxCell>
        <mxCell id="32LVTKCDqMcI-Yv9jakk-61" value="You win" style="rounded=0;whiteSpace=wrap;html=1;" vertex="1" parent="1">
          <mxGeometry x="125" y="760" width="120" height="60" as="geometry" />
        </mxCell>
        <mxCell id="32LVTKCDqMcI-Yv9jakk-64" value="" style="edgeStyle=orthogonalEdgeStyle;rounded=0;orthogonalLoop=1;jettySize=auto;html=1;" edge="1" parent="1" source="32LVTKCDqMcI-Yv9jakk-63" target="32LVTKCDqMcI-Yv9jakk-1">
          <mxGeometry relative="1" as="geometry">
            <Array as="points">
              <mxPoint x="370" y="130" />
              <mxPoint x="370" y="130" />
            </Array>
          </mxGeometry>
        </mxCell>
        <mxCell id="32LVTKCDqMcI-Yv9jakk-63" value="Start" style="ellipse;whiteSpace=wrap;html=1;aspect=fixed;" vertex="1" parent="1">
          <mxGeometry x="330" y="20" width="80" height="80" as="geometry" />
        </mxCell>
        <mxCell id="32LVTKCDqMcI-Yv9jakk-68" style="edgeStyle=orthogonalEdgeStyle;rounded=0;orthogonalLoop=1;jettySize=auto;html=1;entryX=0.164;entryY=-0.035;entryDx=0;entryDy=0;entryPerimeter=0;" edge="1" parent="1" source="32LVTKCDqMcI-Yv9jakk-42" target="32LVTKCDqMcI-Yv9jakk-23">
          <mxGeometry relative="1" as="geometry">
            <Array as="points">
              <mxPoint x="585" y="770" />
              <mxPoint x="650" y="770" />
            </Array>
          </mxGeometry>
        </mxCell>
        <mxCell id="32LVTKCDqMcI-Yv9jakk-69" style="edgeStyle=orthogonalEdgeStyle;rounded=0;orthogonalLoop=1;jettySize=auto;html=1;entryX=0.432;entryY=-0.008;entryDx=0;entryDy=0;entryPerimeter=0;" edge="1" parent="1" source="32LVTKCDqMcI-Yv9jakk-12" target="32LVTKCDqMcI-Yv9jakk-14">
          <mxGeometry relative="1" as="geometry" />
        </mxCell>
        <mxCell id="32LVTKCDqMcI-Yv9jakk-70" style="edgeStyle=orthogonalEdgeStyle;rounded=0;orthogonalLoop=1;jettySize=auto;html=1;entryX=0.548;entryY=-0.006;entryDx=0;entryDy=0;entryPerimeter=0;" edge="1" parent="1" source="32LVTKCDqMcI-Yv9jakk-6" target="32LVTKCDqMcI-Yv9jakk-14">
          <mxGeometry relative="1" as="geometry">
            <mxPoint x="381" y="478" as="targetPoint" />
          </mxGeometry>
        </mxCell>
      </root>
    </mxGraphModel>
  </diagram>
</mxfile>
